<?xml version="1.0" encoding="utf-8"?>
<!-- Generator: Adobe Illustrator 16.0.0, SVG Export Plug-In . SVG Version: 6.00 Build 0)  -->
<!DOCTYPE svg PUBLIC "-//W3C//DTD SVG 1.1//EN" "http://www.w3.org/Graphics/SVG/1.1/DTD/svg11.dtd">
<svg version="1.1" id="Capa_1" xmlns="http://www.w3.org/2000/svg" xmlns:xlink="http://www.w3.org/1999/xlink" x="0px" y="0px"
	 width="1224px" height="792px" viewBox="0 0 1224 792" enable-background="new 0 0 1224 792" xml:space="preserve">
<path fill="#FFE000" d="M439.098,430.331c0,0-3.642,7.908-7.016,12.697c-3.372,4.79-6.484,8.758-7.905,10.316
	c-1.419,1.56-5.69,5.914-7.52,7.477c-1.829,1.561-5.71,4.659-7.329,5.771c-1.621,1.113-3.569,2.383-3.569,2.383l31.999,34.939
	l33.588-34.098c0,0-11.103-7.283-18.451-16.819C445.546,443.465,439.928,433.112,439.098,430.331"/>
<path fill="#FBB03B" d="M439.098,430.331c0,0-5.921,11.056-8.815,15.21c-3.021,4.343-8.807,10.933-12.972,14.698
	c-4.15,3.752-11.551,8.736-11.551,8.736l31.999,34.939l25.198-25.582l-24.976,22.547l-22.688-31.868c0,0,7.258-8.146,13.128-16.794
	C434.657,443.034,439.098,430.331,439.098,430.331"/>
<path fill="#FFFFFF" d="M318.632,396.069c-0.689-12.804,0.615-24.022,3.913-33.658c3.296-9.635,8.014-17.132,14.146-22.496
	c11.78-10.006,25.11-15.408,39.992-16.21c10.382-0.56,19.252,0.655,26.615,3.643c7.36,2.987,13.194,6.576,17.5,10.77
	c4.299,4.194,8.108,10.41,11.415,18.647c3.306,8.241,5.268,18.067,5.883,29.485c1.286,23.877-3.541,42.273-14.469,55.18
	c-10.932,12.911-25.438,19.85-43.517,20.823c-18.082,0.974-32.541-4.105-43.378-15.234
	C325.894,435.893,319.862,418.906,318.632,396.069 M380.826,439.312c18.858-1.017,27.469-16.75,25.829-47.204
	c-0.829-15.397-3.578-26.962-8.244-34.694c-4.671-7.727-11.978-11.327-21.924-10.791c-9.953,0.536-17.056,4.736-21.316,12.599
	c-4.262,7.868-6.04,18.375-5.332,31.522c1.314,24.396,6.635,39.463,15.97,45.21C369.937,438.509,374.943,439.627,380.826,439.312"/>
<path fill="#FFFFFF" d="M585.352,458.896l-3.585-159.167c-0.096-4.249-2.46-6.415-7.081-6.499l-9.718-0.335l-0.52-23.017l48.8-1.099
	l1.479,65.72c8.144-7.951,19.24-12.087,33.289-12.403c17.376-0.392,31.28,5.169,41.713,16.677
	c10.431,11.514,15.888,27.898,16.367,49.152c1.204,53.428-20.564,80.644-65.3,81.651c-9.612,0.217-19.761-0.715-30.44-2.781
	C599.676,464.725,591.343,462.087,585.352,458.896 M615.489,368.327l1.619,71.818c7.105,3.542,15.281,5.203,24.527,4.993
	c21.073-0.475,31.224-17.808,30.454-52.01c-0.704-31.238-11.411-46.626-32.111-46.161c-6.658,0.151-12.436,2.221-17.339,6.217
	C617.735,357.18,615.352,362.226,615.489,368.327"/>
<path fill="#FFFFFF" d="M837.785,438.476l-0.037,19.936l-40.878-0.077l0.031-16.402c-9.278,13.104-22.918,19.64-40.915,19.604
	c-26.077-0.049-39.084-14.62-39.029-43.727l0.109-58.289c0.009-4.541-2.094-6.899-6.296-7.077l-8.073-0.519l0.04-20.691
	l44.409,0.083l-0.151,79.989c-0.017,8.918,1.233,15.646,3.748,20.193c2.516,4.546,7.723,6.827,15.632,6.842
	c7.904,0.015,14.261-2.409,19.064-7.28c4.803-4.868,7.213-10.751,7.227-17.65l0.21-59.369c0.006-2.688-0.456-4.582-1.378-5.679
	c-0.923-1.094-2.562-1.727-4.916-1.902l-8.074-0.52l0.533-26.002l44.412,0.084l-0.792,110.35c-0.006,2.694,0.407,4.503,1.25,5.429
	c0.84,0.929,2.521,1.563,5.043,1.902L837.785,438.476z"/>
<path fill="#FFFFFF" d="M924.638,466.203l0.957-19.153c-9.896,12.643-23.836,18.515-41.811,17.616
	c-26.043-1.301-38.336-16.481-36.885-45.551l2.732-61.681c0.228-4.536-1.757-6.991-5.945-7.371l-8.04-0.906l1.033-20.667
	l44.354,2.217l-3.816,83.354c-0.445,8.908,0.48,15.688,2.772,20.351c2.296,4.661,7.388,7.19,15.287,7.585
	c7.895,0.395,14.361-1.723,19.392-6.355c5.031-4.633,7.722-10.393,8.064-17.284l2.369-50.515c0.144-2.855-0.225-4.851-1.091-5.992
	c-0.869-1.137-2.48-1.766-4.833-1.884l-8.039-0.907l1.034-20.666l44.355,2.217l-6.186,126.878
	c-1.017,20.326-6.673,34.951-16.972,43.87c-10.299,8.915-25.405,12.878-45.312,11.884c-19.911-0.996-35.27-4.543-46.083-10.642
	l2.245-37.341l24.042-0.819l-1.099,14.408c-0.226,4.534,1.719,7.703,5.84,9.514c4.118,1.805,9.877,2.895,17.27,3.264
	C911.949,502.708,923.404,490.899,924.638,466.203"/>
<path fill="#FFFFFF" d="M1023.094,359.959c-3.806-1.169-8.343-1.593-13.609-1.274c-5.271,0.32-9.424,1.778-12.45,4.37
	c-3.033,2.598-4.442,5.637-4.232,9.124c0.213,3.487,0.959,6.164,2.239,8.03c1.28,1.869,3.2,3.421,5.764,4.666
	c3.995,1.781,8.752,3.241,14.267,4.386c5.511,1.145,9.609,2.063,12.299,2.752c2.684,0.695,6.065,1.932,10.14,3.703
	c4.073,1.776,7.188,3.765,9.344,5.968c5.771,5.401,8.929,12.601,9.477,21.59c0.704,11.623-2.97,20.985-11.015,28.08
	c-8.05,7.103-18.579,11.044-31.597,11.832c-18.908,1.147-33.309-0.395-43.209-4.614l-1.958-32.312l20.82-2.893l0.677,11.154
	c0.412,6.823,7.129,9.835,20.146,9.046c13.021-0.791,19.242-5.907,18.67-15.366c-0.207-3.407-1.504-6.125-3.879-8.162
	c-2.378-2.032-4.677-3.369-6.894-4.015c-2.22-0.644-4.858-1.26-7.927-1.853c-3.069-0.591-6.062-1.187-8.974-1.789
	c-2.918-0.6-6.08-1.458-9.49-2.575c-3.414-1.111-7.21-2.79-11.387-5.025c-8.213-4.634-12.683-12.956-13.412-24.97
	c-0.727-12.007,2.971-21.527,11.1-28.553c8.128-7.025,18.664-10.93,31.604-11.715c12.938-0.784,25.952,1.541,39.037,6.966
	l1.691,27.896l-20.826,2.895l-0.591-9.763C1028.684,363.667,1026.739,361.14,1023.094,359.959"/>
<path fill="#E6E6E6" d="M564.221,269.718l0.524,23.317l10.559,0.661c0,0,6.063,0.312,6.2,6.365
	c0.136,6.054,3.511,158.519,3.511,158.519l2.34,1.52l-3.738-165.919c0,0-1.269-6.476-7.293-4.995
	C570.301,290.667,565.512,287.189,564.221,269.718"/>
<path fill="#E6E6E6" d="M721.984,423.417l-1.289-71.007c0,0-1.01-5.92-6.522-4.706c-5.511,1.214-9.789-2.056-10.576-17.972
	l-0.038,21.218l9.588,0.835c0,0,4.687,0.827,4.676,6.336c-0.009,5.509,0.168,53.457,0.168,53.457l0.115,12.853
	c1.408,10.407,2.017,13.06,4.658,18.371c2.641,5.31,7.731,11.655,14.661,14.417c6.932,2.763,19.58,3.602,19.58,3.602
	c-8.973-2.464-24.268-6.574-29.758-16.379C721.759,434.64,721.984,423.417,721.984,423.417"/>
<path fill="#E6E6E6" d="M852.688,351.463c0,0-0.726-5.96-6.288-5.012c-5.564,0.948-9.68-2.525-9.701-18.461l-1.059,21.192
	l9.538,1.294c0,0,4.641,1.052,4.366,6.554c-0.275,5.502-2.601,64.428-2.601,64.428l0.394,11.253
	c0.908,10.464,5.141,15.117,7.03,18.738c2.745,5.256,7.404,7.218,14.194,10.31c6.789,3.093,19.653,3.229,19.653,3.229
	c-4.952-1.621-17.111-6.216-25.228-10.247c-7.774-3.859-10.882-17.548-11.321-18.745
	C849.15,429.129,852.688,351.463,852.688,351.463"/>
<path fill="#E6E6E6" d="M365.765,325.161c0,0-24.802,4.492-37.965,25.825c-13.162,21.334-8.897,49.724-7.471,60.592
	c1.428,10.868,7.255,25.285,14.876,33.926c7.621,8.64,19.536,14.942,30.549,16.244c11.014,1.301,12.449,0.592,12.449,0.592
	s-40.439-0.618-49.525-44.266c-9.087-43.647-2.048-57.555,4.039-65.669C338.804,344.29,350.96,331.64,365.765,325.161"/>
<path fill="#E6E6E6" d="M990.299,423.735l-20.829,2.417l1.131,32.589c0,0,2.022-28.261,6.097-30.286
	C980.773,426.43,990.299,423.735,990.299,423.735"/>
<path fill="#E6E6E6" d="M1007.792,339.679c0,0-19.77,0.633-31.998,13.637c-12.227,13.003-8.513,30.699-8.513,30.699
	s2.072,9.307,3.748,12.034l1.675,2.729c0,0-9.581-27.34,3.775-40.411S1007.792,339.679,1007.792,339.679"/>
<g>
	<defs>
		<path id="XMLID_1_" d="M387.46,380.084c0.1-5.449,4.597-9.786,10.046-9.686c5.448,0.099,9.785,4.596,9.686,10.045
			c-0.098,5.448-4.596,9.786-10.045,9.686C391.699,390.03,387.362,385.532,387.46,380.084"/>
	</defs>
	<use xlink:href="#XMLID_1_"  overflow="visible" fill="#FFE000"/>
	<clipPath id="XMLID_3_">
		<use xlink:href="#XMLID_1_"  overflow="visible"/>
	</clipPath>
</g>
<path fill="#FFFFFF" d="M188.649,435.718l-4.455-134.348c-0.098-2.94-0.673-4.947-1.719-6.019c-1.049-1.07-2.863-1.652-5.442-1.752
	l-9.675-0.231l-0.759-22.897l49.105-1.629l2.46,74.207c9.109-13.924,22.312-21.176,39.599-21.749
	c13.973-0.463,24.913,3.179,32.813,10.926c7.893,7.747,12.111,19.621,12.641,35.62l2.387,72.001l15.751,0.308l0.731,22.068
	l-65.655,2.178l-0.695-20.965l9.077-1.133c2.746-0.456,4.742-1.303,5.991-2.545c1.245-1.237,1.817-3.511,1.708-6.82l-1.884-56.83
	c-0.318-9.56-2.08-16.867-5.284-21.92c-3.204-5.044-9.178-7.428-17.911-7.138c-8.739,0.29-15.635,3.237-20.697,8.834
	c-5.062,5.602-7.463,12.261-7.208,19.985l2.213,66.759l15.752,0.306l0.732,22.071l-65.657,2.177l-0.695-20.965l9.076-1.131
	c2.746-0.457,4.743-1.303,5.992-2.545C188.187,441.302,188.758,439.027,188.649,435.718"/>
<path fill="#E6E6E6" d="M166.667,270.307l0.77,23.197l10.512,0.545c0,0,6.037,0.247,6.237,6.268l4.525,136.507
	c0,0,1.109,6.441-5.547,7.778c-6.654,1.338-10.661,1.693-10.661,1.693l0.691,20.864l6.468-0.215c0,0-6.486-8.405-5.622-14.672
	c0.864-6.265,9.853-5.909,13.607-7.149c3.756-1.242,3.362-6.367,3.362-6.367l-4.782-144.314c0,0-1.331-6.431-7.31-4.893
	C172.939,291.088,168.137,287.676,166.667,270.307"/>
<path fill="#FFFFFF" d="M434.268,379.704c0.273-15.071,2.751-28.117,7.435-39.139c4.68-11.019,10.847-19.413,18.493-25.186
	c14.661-10.737,30.75-15.946,48.27-15.626c12.224,0.223,22.522,2.396,30.906,6.523c8.379,4.125,14.917,8.828,19.611,14.109
	c4.688,5.284,8.628,12.896,11.812,22.834c3.18,9.943,4.648,21.633,4.403,35.076c-0.511,28.111-7.725,49.276-21.632,63.491
	c-13.913,14.215-31.511,21.126-52.796,20.738c-21.289-0.387-37.816-7.565-49.584-21.533
	C439.414,427.022,433.777,406.595,434.268,379.704 M503.547,435.678c22.202,0.403,33.631-17.316,34.283-53.171
	c0.33-18.127-1.916-31.923-6.735-41.385c-4.823-9.459-13.089-14.297-24.799-14.511c-11.717-0.213-20.401,4.113-26.064,12.974
	c-5.664,8.867-8.636,21.038-8.918,36.517c-0.522,28.721,4.446,46.845,14.906,54.37C490.845,433.815,496.621,435.552,503.547,435.678
	"/>
<path fill="#E6E6E6" d="M438.554,416.271c3.719,5.444,19.767,33.553,40.437,42.854c0,0-15.252-1.54-28.79-19.334
	c-2.521-3.313-5.403-7.55-7.57-12.284C441.029,424.006,440.094,420.263,438.554,416.271"/>
<path fill="#FBB03B" d="M387.5,380.688c0,0,4.25,9,11.75,9.188c0,0-7.913,2.032-11.208-6.166
	C387.677,382.802,387.5,381.959,387.5,380.688z"/>
<path fill="#FBB03B" d="M512.312,356.688c0,0-0.183,1.125,0.062,2.719c0.505,3.276,2.482,8.582,9.203,10.5
	c1.039,0.297,2.2,0.351,3.484,0.469C525.062,370.375,514.062,365.25,512.312,356.688z"/>
<path fill="#FFE000" d="M512.259,357.44c-0.127,7.013,5.454,12.802,12.468,12.929c7.013,0.128,12.803-5.454,12.929-12.467
	c0.128-7.014-5.454-12.802-12.467-12.93C518.176,344.845,512.387,350.426,512.259,357.44"/>
<path fill="#FBB03B" d="M522.185,345.576c0,0-4.949,0.472-7.666,4.346c-2.717,3.873-3.526,8.579-1.848,12.852
	c0.884,2.251,3.241,5.582,6.275,6.971c2.724,1.246,6.198,0.671,6.199,0.671c0,0-8.19-2.672-9.785-10.833
	C513.85,351.858,522.185,345.576,522.185,345.576z"/>
</svg>
